<svg width="16" height="17" viewBox="0 0 16 17" fill="none" xmlns="http://www.w3.org/2000/svg">
<rect y="0.25" width="16" height="16" rx="8" fill="#ADCB21"/>
<path d="M6.47482 10.0782L4.80665 8.4395C4.76303 8.39613 4.71108 8.36169 4.65381 8.33819C4.59653 8.31469 4.53508 8.30258 4.47302 8.30258C4.41095 8.30258 4.3495 8.31469 4.29223 8.33819C4.23496 8.36169 4.183 8.39613 4.13938 8.4395C4.09523 8.48235 4.06017 8.53339 4.03625 8.58964C4.01232 8.6459 4 8.70627 4 8.76724C4 8.82821 4.01232 8.88857 4.03625 8.94483C4.06017 9.00109 4.09523 9.05212 4.13938 9.09497L6.13642 11.0567C6.3223 11.2393 6.62257 11.2393 6.80845 11.0567L11.8606 6.09854C11.9048 6.05569 11.9398 6.00466 11.9638 5.9484C11.9877 5.89214 12 5.83178 12 5.77081C12 5.70983 11.9877 5.64947 11.9638 5.59321C11.9398 5.53695 11.9048 5.48592 11.8606 5.44307C11.817 5.3997 11.765 5.36526 11.7078 5.34176C11.6505 5.31825 11.5891 5.30615 11.527 5.30615C11.4649 5.30615 11.4035 5.31825 11.3462 5.34176C11.2889 5.36526 11.237 5.3997 11.1934 5.44307L6.47482 10.0782Z" fill="white"/>
</svg>
