<svg width="63" height="64" viewBox="0 0 63 64" fill="none" xmlns="http://www.w3.org/2000/svg">
<circle cx="31.5" cy="32" r="31.5" fill="#AFD908" fill-opacity="0.1"/>
<circle cx="31.4999" cy="32.0003" r="23.5345" fill="#AFD908" fill-opacity="0.4"/>
<path d="M21.5376 24.5286V37.8117C21.5376 38.2521 21.7126 38.6744 22.024 38.9858C22.3354 39.2971 22.7577 39.4721 23.198 39.4721H39.802C40.2423 39.4721 40.6646 39.2971 40.976 38.9858C41.2874 38.6744 41.4623 38.2521 41.4623 37.8117V24.5286H21.5376ZM21.5376 22.8682H41.4623C41.9027 22.8682 42.325 23.0431 42.6364 23.3545C42.9478 23.6659 43.1227 24.0882 43.1227 24.5286V37.8117C43.1227 38.6924 42.7729 39.5371 42.1501 40.1598C41.5273 40.7826 40.6827 41.1325 39.802 41.1325H23.198C22.3173 41.1325 21.4727 40.7826 20.8499 40.1598C20.2271 39.5371 19.8773 38.6924 19.8773 37.8117V24.5286C19.8773 24.0882 20.0522 23.6659 20.3636 23.3545C20.675 23.0431 21.0973 22.8682 21.5376 22.8682Z" fill="#037847"/>
<path d="M41.6699 24.5283L35.2491 31.8673C34.7816 32.4017 34.2052 32.8301 33.5586 33.1235C32.912 33.417 32.2101 33.5688 31.5 33.5688C30.7899 33.5688 30.088 33.417 29.4414 33.1235C28.7947 32.8301 28.2183 32.4017 27.7508 31.8673L21.3301 24.5283H41.6699ZM23.5367 24.5283L28.9994 30.7731C29.3111 31.1295 29.6954 31.4151 30.1265 31.6108C30.5577 31.8065 31.0257 31.9077 31.4991 31.9077C31.9726 31.9077 32.4406 31.8065 32.8717 31.6108C33.3029 31.4151 33.6872 31.1295 33.9989 30.7731L39.4632 24.5283H23.5367Z" fill="#037847"/>
</svg>
