<svg width="29" height="30" viewBox="0 0 29 30" fill="none" xmlns="http://www.w3.org/2000/svg">
<path d="M29 15.2701C29 7.26137 22.5088 0.770142 14.5 0.770142C6.49123 0.770142 0 7.26137 0 15.2701C0 22.5082 5.29945 28.5069 12.2356 29.5953V19.4652H8.55699V15.2701H12.2356V12.0762C12.2356 8.44521 14.3967 6.43507 17.7099 6.43507C19.2989 6.43507 20.9594 6.7211 20.9594 6.7211V10.2885H19.1321C17.3285 10.2885 16.7723 11.4088 16.7723 12.5529V15.2701H20.7926L20.149 19.4652H16.7723V29.5953C23.7005 28.5069 29 22.5082 29 15.2701Z" fill="#1877F2"/>
<path d="M20.1408 19.4652L20.7843 15.2701H16.764V12.5529C16.764 11.4088 17.3282 10.2885 19.1238 10.2885H20.9512V6.72109C20.9512 6.72109 19.2906 6.43506 17.7016 6.43506C14.3884 6.43506 12.2273 8.4452 12.2273 12.0762V15.2701H8.54871V19.4652H12.2273V29.5953C12.9662 29.7145 13.721 29.7701 14.4917 29.7701C15.2624 29.7701 16.0172 29.7066 16.7561 29.5953V19.4652H20.1408Z" fill="white"/>
</svg>
