<svg width="27" height="29" viewBox="0 0 27 29" fill="none" xmlns="http://www.w3.org/2000/svg">
<path d="M27 14.8516C27 13.7189 26.9081 12.8924 26.7092 12.0353H13.7757V17.1474H21.3674C21.2144 18.4178 20.3878 20.3311 18.5511 21.6167L18.5254 21.7879L22.6147 24.9558L22.898 24.9841C25.5 22.581 27 19.0454 27 14.8516Z" fill="#4285F4"/>
<path d="M13.7756 28.3208C17.4949 28.3208 20.6173 27.0962 22.8979 24.9841L18.551 21.6167C17.3878 22.4279 15.8266 22.9943 13.7756 22.9943C10.1329 22.9943 7.04109 20.5913 5.93896 17.2699L5.77742 17.2836L1.52527 20.5744L1.46967 20.729C3.73491 25.2289 8.38792 28.3208 13.7756 28.3208Z" fill="#34A853"/>
<path d="M5.93863 17.2699C5.64782 16.4128 5.47952 15.4944 5.47952 14.5454C5.47952 13.5964 5.64782 12.6781 5.92333 11.821L5.91563 11.6384L1.6102 8.2948L1.46933 8.3618C0.535712 10.2291 0 12.3261 0 14.5454C0 16.7648 0.535712 18.8616 1.46933 20.729L5.93863 17.2699Z" fill="#FBBC05"/>
<path d="M13.7756 6.09656C16.3623 6.09656 18.1071 7.21388 19.1021 8.14761L22.9897 4.35172C20.6021 2.13237 17.4949 0.770142 13.7756 0.770142C8.38792 0.770142 3.73491 3.86191 1.46967 8.36181L5.92366 11.821C7.04109 8.49961 10.1329 6.09656 13.7756 6.09656Z" fill="#EB4335"/>
</svg>
