<svg width="63" height="63" viewBox="0 0 63 63" fill="none" xmlns="http://www.w3.org/2000/svg">
<path d="M35.8078 34.2995L35.8078 34.2995L35.8052 34.2986C35.4722 34.1935 35.1168 34.1816 34.7776 34.2642C34.4384 34.3468 34.1282 34.5207 33.8808 34.767L33.8806 34.7673L32.2803 36.3676C29.4803 34.8156 27.1727 32.508 25.6207 29.7081L27.2081 28.1207C27.7277 27.6254 27.9166 26.8891 27.6895 26.1824L27.6891 26.1813C27.2743 24.9254 27.0667 23.5996 27.0667 22.25C27.0667 21.7461 26.8665 21.2628 26.5102 20.9065C26.1539 20.5502 25.6706 20.35 25.1667 20.35H21.0833C20.5794 20.35 20.0962 20.5502 19.7398 20.9065C19.3835 21.2628 19.1833 21.7461 19.1833 22.25C19.1833 33.5912 28.4088 42.8167 39.75 42.8167C40.2539 42.8167 40.7372 42.6165 41.0935 42.2602C41.4498 41.9038 41.65 41.4206 41.65 40.9167V36.8333C41.65 36.3294 41.4498 35.8461 41.0935 35.4898C40.7372 35.1335 40.2539 34.9333 39.75 34.9333C38.4005 34.9333 37.075 34.7257 35.8078 34.2995ZM26.2958 26.6367L26.2958 26.6367L26.2971 26.6405C26.339 26.7578 26.3319 26.9276 26.1924 27.0671C26.1924 27.0672 26.1923 27.0672 26.1923 27.0673L23.8942 29.3537L23.8167 29.4308L23.8664 29.5282C25.8058 33.3248 28.652 36.1707 32.4596 38.1333L32.5575 38.1838L32.6349 38.1055L34.9094 35.8077C34.9095 35.8077 34.9095 35.8076 34.9096 35.8076C35.0307 35.6865 35.1937 35.65 35.3548 35.6936C36.7692 36.1646 38.2422 36.4 39.75 36.4C39.8649 36.4 39.9752 36.4457 40.0564 36.5269C40.1377 36.6082 40.1833 36.7184 40.1833 36.8333V40.9167C40.1833 41.0316 40.1377 41.1418 40.0564 41.2231C39.9752 41.3043 39.8649 41.35 39.75 41.35C29.2162 41.35 20.65 32.7838 20.65 22.25C20.65 22.1351 20.6957 22.0249 20.7769 21.9436C20.8582 21.8623 20.9684 21.8167 21.0833 21.8167H25.1667C25.2816 21.8167 25.3918 21.8623 25.4731 21.9436C25.5544 22.0249 25.6 22.1351 25.6 22.25C25.6 23.7591 25.8358 25.2332 26.2958 26.6367Z" fill="#0047FF" stroke="#0047FF" stroke-width="0.3"/>
<circle cx="31.5" cy="31.5" r="31.5" fill="#0062FF" fill-opacity="0.1"/>
<circle cx="31.4999" cy="31.5003" r="23.5345" fill="#0062FF" fill-opacity="0.2"/>
</svg>
