<svg width="84" height="83" viewBox="0 0 84 83" fill="none" xmlns="http://www.w3.org/2000/svg">
<circle cx="42" cy="41.5" r="41.5" fill="#E5EFFF"/>
<circle cx="41.9999" cy="41.5" r="31.0057" fill="#B7D3FF"/>
<path d="M34.9375 43.875C35.973 43.875 36.8125 43.0355 36.8125 42C36.8125 40.9645 35.973 40.125 34.9375 40.125C33.902 40.125 33.0625 40.9645 33.0625 42C33.0625 43.0355 33.902 43.875 34.9375 43.875Z" fill="#004FFF"/>
<path d="M48.0625 43.875C49.098 43.875 49.9375 43.0355 49.9375 42C49.9375 40.9645 49.098 40.125 48.0625 40.125C47.027 40.125 46.1875 40.9645 46.1875 42C46.1875 43.0355 47.027 43.875 48.0625 43.875Z" fill="#004FFF"/>
<path d="M41.5 43.875C42.5355 43.875 43.375 43.0355 43.375 42C43.375 40.9645 42.5355 40.125 41.5 40.125C40.4645 40.125 39.625 40.9645 39.625 42C39.625 43.0355 40.4645 43.875 41.5 43.875Z" fill="#004FFF"/>
<path d="M41.5 55.125C38.9041 55.125 36.3665 54.3552 34.2081 52.913C32.0498 51.4708 30.3675 49.421 29.3741 47.0227C28.3807 44.6244 28.1208 41.9854 28.6272 39.4394C29.1336 36.8934 30.3837 34.5548 32.2192 32.7192C34.0548 30.8837 36.3934 29.6336 38.9394 29.1272C41.4854 28.6208 44.1244 28.8807 46.5227 29.8741C48.921 30.8675 50.9708 32.5498 52.413 34.7081C53.8552 36.8665 54.625 39.4041 54.625 42C54.621 45.4798 53.2369 48.8158 50.7764 51.2764C48.3158 53.7369 44.9798 55.121 41.5 55.125ZM41.5 30.75C39.275 30.75 37.0999 31.4098 35.2498 32.646C33.3998 33.8821 31.9578 35.6391 31.1064 37.6948C30.2549 39.7505 30.0321 42.0125 30.4662 44.1948C30.9003 46.3771 31.9717 48.3816 33.5451 49.955C35.1184 51.5283 37.123 52.5998 39.3052 53.0338C41.4875 53.4679 43.7495 53.2451 45.8052 52.3936C47.8609 51.5422 49.6179 50.1002 50.854 48.2502C52.0902 46.4001 52.75 44.225 52.75 42C52.7465 39.0174 51.5602 36.1579 49.4511 34.0489C47.3421 31.9399 44.4826 30.7535 41.5 30.75Z" fill="#004FFF"/>
</svg>
